<svg version="1.2" xmlns="http://www.w3.org/2000/svg" viewBox="0 0 535 537" width="535" height="537"><defs><linearGradient id="P" gradientUnits="userSpaceOnUse"/><linearGradient id="g1" x2="1" href="#P" gradientTransform="matrix(95.451,165.086,-87.633,50.668,122.407,281.384)"><stop stop-color="#699ad7"/><stop offset=".24" stop-color="#7eb1dd"/><stop offset="1" stop-color="#7ebae4"/></linearGradient><linearGradient id="g2" x2="1" href="#P" gradientTransform="matrix(-95.243,165.206,-87.697,-50.558,183.736,149.46)"><stop stop-color="#699ad7"/><stop offset=".24" stop-color="#7eb1dd"/><stop offset="1" stop-color="#7ebae4"/></linearGradient><linearGradient id="g3" x2="1" href="#P" gradientTransform="matrix(190.694,-0.12,.064,101.226,206.018,400.689)"><stop stop-color="#699ad7"/><stop offset=".24" stop-color="#7eb1dd"/><stop offset="1" stop-color="#7ebae4"/></linearGradient><linearGradient id="g4" x2="1" href="#P" gradientTransform="matrix(-95.451,-165.086,87.633,-50.668,412.889,255.75)"><stop stop-color="#699ad7"/><stop offset=".24" stop-color="#7eb1dd"/><stop offset="1" stop-color="#7ebae4"/></linearGradient><linearGradient id="g5" x2="1" href="#P" gradientTransform="matrix(93.757,165.727,-88.517,50.077,132.272,275.768)"><stop stop-color="#415e9a"/><stop offset=".23" stop-color="#4a6baf"/><stop offset="1" stop-color="#5277c3"/></linearGradient><linearGradient id="g6" x2="1" href="#P" gradientTransform="matrix(-190.402,-1.668,.891,-101.697,328.67,147.278)"><stop stop-color="#415e9a"/><stop offset=".23" stop-color="#4a6baf"/><stop offset="1" stop-color="#5277c3"/></linearGradient><linearGradient id="g7" x2="1" href="#P" gradientTransform="matrix(96.645,-164.059,87.627,51.62,341.468,381.903)"><stop stop-color="#415e9a"/><stop offset=".23" stop-color="#4a6baf"/><stop offset="1" stop-color="#5277c3"/></linearGradient></defs><style>.a{fill:url(#g1)}.b{fill:url(#g2)}.c{fill:url(#g3)}.d{fill:url(#g4)}.e{fill:url(#g5)}.f{fill:url(#g6)}.g{fill:url(#g7)}</style><filter id="f0"><feFlood flood-color="#a89ad6" flood-opacity="1" /><feBlend mode="color" in2="SourceGraphic"/><feComposite in2="SourceAlpha" operator="in" /></filter><g filter="url(#f0)"><path fill-rule="evenodd" class="a" d="m163.3 274.3l130.3 225.8-59.9 0.5-34.8-60.6-35 60.3h-29.8l-15.2-26.3 49.9-85.9-35.5-61.7z"/><path fill-rule="evenodd" class="b" d="m210.3 181.3l-130.4 225.8-30.4-51.6 35.1-60.5-69.7-0.2-14.9-25.8 15.2-26.3 99.3 0.3 35.7-61.5z"/><path fill-rule="evenodd" class="c" d="m220.3 361.8h260.7l-29.5 52.1-69.9-0.2 34.7 60.6-14.9 25.7-30.4 0.1-49.4-86.2-71.1-0.2z"/><path fill-rule="evenodd" class="d" d="m372 262.8l-130.3-225.7 59.9-0.6 34.8 60.7 35-60.4h29.8l15.2 26.4-49.9 85.8 35.5 61.7z"/><path fill-rule="evenodd" class="e" d="m163.3 274.3l130.3 225.8-59.9 0.5-34.8-60.6-35 60.3h-29.8l-15.2-26.3 49.9-85.9-35.5-61.7z"/><path fill-rule="evenodd" class="f" d="m314.5 174.9l-260.7-0.1 29.4-52.1 70 0.2-34.8-60.5 14.9-25.8h30.4l49.4 86.1 71.2 0.2z"/><path fill-rule="evenodd" class="g" d="m324.7 355.8l130.4-225.8 30.4 51.6-35.1 60.5 69.7 0.2 14.9 25.8-15.2 26.3-99.3-0.3-35.7 61.5z"/></g></svg>